<?xml version="1.0" standalone="no"?>
<!DOCTYPE svg PUBLIC "-//W3C//DTD SVG 20010904//EN"
 "http://www.w3.org/TR/2001/REC-SVG-20010904/DTD/svg10.dtd">
<svg version="1.0" xmlns="http://www.w3.org/2000/svg"
 width="2000.000000pt" height="2000.000000pt" viewBox="0 0 2000.000000 2000.000000"
 preserveAspectRatio="xMidYMid meet">
<metadata>
Created by potrace 1.14, written by Peter Selinger 2001-2017
</metadata>
<g transform="translate(0.000000,2000.000000) scale(0.100000,-0.100000)"
fill="#000000" stroke="none">
<path d="M0 10000 l0 -9280 1225 0 c1137 0 1225 1 1225 17 0 9 3 13 7 9 4 -4
1702 1688 3773 3759 l3765 3765 3764 -3765 c3005 -3004 3768 -3762 3779 -3753
7 6 12 7 11 2 -1 -5 -1 -15 0 -21 1 -10 253 -13 1226 -13 l1225 0 0 9280 0
9280 -1225 0 c-844 0 -1225 -3 -1225 -10 0 -6 -7 -10 -15 -8 -9 2 -1549 -1530
-3778 -3759 l-3762 -3763 -3500 3500 c-1925 1925 -3622 3622 -3770 3770 l-271
270 -1227 0 -1227 0 0 -9280z m17548 4 l0 -5816 -2909 2908 -2909 2909 2908
2908 c1599 1599 2908 2907 2908 2907 1 0 2 -2617 2 -5816z m-12191 -2901
c-1596 -1597 -2903 -2903 -2903 -2903 -1 0 -2 2613 -2 5806 l0 5806 2904
-2903 2904 -2904 -2903 -2902z"/>
</g>
</svg>
