<svg viewBox="0 0 18 12" fill="none" xmlns="http://www.w3.org/2000/svg">
<path d="M15.7502 1.51245C13.7366 0.0675649 11.8604 0.00749706 11.5019 0L11.2731 0.217142C13.8434 0.935906 15.0867 2.05901 15.0867 2.05901C12.8804 0.993475 10.8013 0.618758 9.00011 0.596221C7.19895 0.61894 5.11981 0.993475 2.91359 2.05901C2.91359 2.05901 4.15683 0.935906 6.72723 0.217142L6.49837 0C6.13991 0.00749706 4.2636 0.0673831 2.25003 1.51245C2.25003 1.51245 0 5.28607 0 9.92071C0.0762429 9.83088 1.39577 11.9123 4.79753 11.9872C4.79753 11.9872 5.36958 11.3508 5.78142 10.7892C3.79833 10.2277 3.0509 9.10462 3.0509 9.10462C5.11254 10.3794 7.0382 10.8699 9.00011 10.8062C10.962 10.8698 12.8877 10.3794 14.9493 9.10462C14.9493 9.10462 14.2019 10.2277 12.2186 10.7892C12.6305 11.3508 13.2025 11.9872 13.2025 11.9872C16.6042 11.9123 17.9238 9.83088 18 9.92071C18.0002 5.28607 15.7502 1.51245 15.7502 1.51245ZM6.23124 8.46819C5.36172 8.46819 4.66004 7.74937 4.66004 6.86586C4.66004 5.98234 5.36172 5.26358 6.23124 5.26358V5.27107C7.09313 5.27107 7.80245 5.98988 7.80245 6.87335C7.80263 7.74938 7.10086 8.46819 6.23142 8.46819H6.23124ZM11.7686 8.46819C10.8991 8.46819 10.1974 7.74938 10.1974 6.87335C10.1974 5.98988 10.9067 5.27107 11.7686 5.27107V5.26358C12.6381 5.26358 13.3398 5.98239 13.3398 6.86586C13.3398 7.74933 12.6383 8.46819 11.7688 8.46819H11.7686Z" fill="currentColor"/>
</svg>
