<svg viewBox="0 0 36 32" fill="none" xmlns="http://www.w3.org/2000/svg">
<path d="M31.4455 12.3431C30.3602 12.3431 29.4051 12.7791 28.702 13.4584C26.1175 11.7253 22.6322 10.6099 18.7704 10.491L20.7765 1.73525L27.1642 3.12393C27.1642 4.63835 28.4386 5.87532 30.0022 5.87532C31.5959 5.87532 32.8774 4.60555 32.8774 3.08976C32.8774 1.57397 31.6045 0.304199 30.0036 0.304199C28.8882 0.304199 27.9259 0.956168 27.4463 1.84733L20.3913 0.332902C20.0362 0.241326 19.6882 0.487352 19.5937 0.831788L17.3915 10.4842C13.5597 10.6387 10.1117 11.7526 7.51855 13.4871C6.81549 12.7791 5.82318 12.3431 4.73781 12.3431C0.711313 12.3431 -0.607464 17.5766 3.07967 19.3657C2.94937 19.9193 2.89066 20.5098 2.89066 21.0989C2.89066 26.9775 9.72797 31.7408 18.1232 31.7408C26.5542 31.7408 33.3915 26.9775 33.3915 21.0989C33.3915 20.5098 33.3271 19.892 33.1681 19.337C36.7808 17.541 35.4506 12.3458 31.4455 12.3431ZM8.9304 19.7375C8.9304 18.1944 10.2048 16.952 11.8057 16.952C13.3693 16.952 14.6451 18.1862 14.6451 19.7375C14.6451 21.2533 13.3707 22.4889 11.8057 22.4889C10.2119 22.4957 8.9304 21.2533 8.9304 19.7375ZM24.4507 26.2955C21.8146 28.8487 14.3759 28.8487 11.7384 26.2955C11.4477 26.0494 11.4477 25.6148 11.7384 25.3346C11.9918 25.0886 12.4414 25.0886 12.6949 25.3346C14.7081 27.3342 21.3865 27.3684 23.4871 25.3346C23.7405 25.0886 24.1901 25.0886 24.4436 25.3346C24.74 25.6162 24.74 26.0508 24.4507 26.2955ZM24.392 22.4944C22.8284 22.4944 21.554 21.2601 21.554 19.7457C21.554 18.2026 22.8284 16.9601 24.392 16.9601C25.9857 16.9601 27.2673 18.1944 27.2673 19.7457C27.2601 21.2533 25.9857 22.4944 24.392 22.4944Z" fill="currentColor"/>
</svg>
